<svg xmlns="http://www.w3.org/2000/svg" viewBox="0 0 1000 800" width="1000" height="800"><defs>
<filter id="soft" x="-30%" y="-30%" width="160%" height="160%"><feGaussianBlur stdDeviation="18"/></filter>
<filter id="steamBlur" x="-50%" y="-50%" width="200%" height="200%"><feGaussianBlur stdDeviation="6"/></filter>
<radialGradient id="table" cx="50%" cy="45%" r="75%"><stop offset="0" stop-color="#3a2a1b"/><stop offset=".55" stop-color="#1d150e"/><stop offset="1" stop-color="#0d0a07"/></radialGradient>
<radialGradient id="glow" cx="50%" cy="40%" r="50%"><stop offset="0" stop-color="#e0a03a" stop-opacity=".22"/><stop offset="1" stop-color="#e0a03a" stop-opacity="0"/></radialGradient>
<radialGradient id="riceBase" cx="50%" cy="80%" r="70%"><stop offset="0" stop-color="#e9c98a"/><stop offset="1" stop-color="#c79a50"/></radialGradient>
<linearGradient id="leafCup" x1="0" y1="0" x2="0" y2="1"><stop offset="0" stop-color="#9d8a4c"/><stop offset=".6" stop-color="#7a6834"/><stop offset="1" stop-color="#4f421e"/></linearGradient>
<radialGradient id="meat" cx="35%" cy="30%" r="75%"><stop offset="0" stop-color="#d98a43"/><stop offset=".6" stop-color="#9c4a1d"/><stop offset="1" stop-color="#5a2410"/></radialGradient>
<radialGradient id="kabab" cx="35%" cy="30%" r="75%"><stop offset="0" stop-color="#f06a35"/><stop offset=".55" stop-color="#c02c14"/><stop offset="1" stop-color="#6e1408"/></radialGradient>
<radialGradient id="mutton" cx="35%" cy="30%" r="75%"><stop offset="0" stop-color="#9a5a2e"/><stop offset=".6" stop-color="#5a2a12"/><stop offset="1" stop-color="#2a1208"/></radialGradient>
<radialGradient id="steel" cx="40%" cy="35%" r="70%"><stop offset="0" stop-color="#e9e6df"/><stop offset=".7" stop-color="#a7a39a"/><stop offset="1" stop-color="#6c6860"/></radialGradient>
<radialGradient id="clayPlate" cx="40%" cy="35%" r="70%"><stop offset="0" stop-color="#9c4d2c"/><stop offset=".8" stop-color="#6e2f18"/><stop offset="1" stop-color="#43190b"/></radialGradient>
<radialGradient id="clayBowl" cx="40%" cy="35%" r="70%"><stop offset="0" stop-color="#b65a32"/><stop offset=".8" stop-color="#7a3519"/><stop offset="1" stop-color="#3f170a"/></radialGradient>
<radialGradient id="gheeRoast" cx="45%" cy="40%" r="65%"><stop offset="0" stop-color="#e2552a"/><stop offset=".7" stop-color="#a8260f"/><stop offset="1" stop-color="#6c1406"/></radialGradient>
<radialGradient id="saaru" cx="45%" cy="40%" r="65%"><stop offset="0" stop-color="#e98a3a"/><stop offset="1" stop-color="#a5481a"/></radialGradient>
<linearGradient id="copper" x1="0" y1="0" x2="1" y2="0"><stop offset="0" stop-color="#5a2a12"/><stop offset=".35" stop-color="#c46a32"/><stop offset=".55" stop-color="#e08a4a"/><stop offset="1" stop-color="#4a200c"/></linearGradient>
<linearGradient id="banana" x1="0" y1="0" x2="1" y2="1"><stop offset="0" stop-color="#5d8c38"/><stop offset=".5" stop-color="#4a7a2a"/><stop offset="1" stop-color="#2f5418"/></linearGradient>
<radialGradient id="ragi" cx="35%" cy="30%" r="75%"><stop offset="0" stop-color="#a0705f"/><stop offset=".6" stop-color="#6a4136"/><stop offset="1" stop-color="#3a221b"/></radialGradient>
<radialGradient id="parotta" cx="40%" cy="35%" r="70%"><stop offset="0" stop-color="#f3cd84"/><stop offset=".7" stop-color="#d79a4c"/><stop offset="1" stop-color="#a5672a"/></radialGradient>
<linearGradient id="glass" x1="0" y1="0" x2="1" y2="0"><stop offset="0" stop-color="#f5ebd6" stop-opacity=".25"/><stop offset=".5" stop-color="#f5ebd6" stop-opacity=".08"/><stop offset="1" stop-color="#f5ebd6" stop-opacity=".22"/></linearGradient>
<linearGradient id="buttermilk" x1="0" y1="0" x2="1" y2="0"><stop offset="0" stop-color="#d9d4c2"/><stop offset=".5" stop-color="#f4f0e2"/><stop offset="1" stop-color="#cfc9b4"/></linearGradient>
<radialGradient id="syrup" cx="45%" cy="40%" r="65%"><stop offset="0" stop-color="#e8a24a"/><stop offset="1" stop-color="#a45a18"/></radialGradient>
<radialGradient id="jamun" cx="35%" cy="30%" r="75%"><stop offset="0" stop-color="#9a3d1a"/><stop offset=".7" stop-color="#5a1e0a"/><stop offset="1" stop-color="#2f0e04"/></radialGradient>
</defs><rect width="1000" height="800" fill="url(#table)"/><rect width="1000" height="800" fill="url(#glow)"/><g opacity="0.85"><circle cx="840.7" cy="714.2" r="2.8" fill="#1e1611"/><circle cx="829.2" cy="719.2" r="2.8" fill="#1e1611"/><circle cx="831.3" cy="713.4" r="2.8" fill="#1e1611"/><circle cx="847.2" cy="725.7" r="2.8" fill="#1e1611"/><circle cx="852.2" cy="708.8" r="2.8" fill="#1e1611"/><circle cx="828" cy="712.9" r="2.8" fill="#1e1611"/><circle cx="845.1" cy="727.2" r="2.8" fill="#1e1611"/><g transform="translate(800.5 747) rotate(149) scale(0.89)"><rect x="-40" y="-6" width="80" height="12" rx="6" fill="#7a3f1f"/><rect x="-40" y="-2" width="80" height="4" fill="#5c2c14"/></g><g transform="translate(780.8 725) rotate(266) scale(1.11)"><path d="M0 0 C18 -8 52 -6 70 6 C52 4 20 8 0 6Z" fill="#b8321f"/><path d="M0 3 C-6 1 -10 -4 -14 -6" stroke="#4c6a2f" stroke-width="3" fill="none" stroke-linecap="round"/></g><g transform="translate(740.9 784.3) rotate(67) scale(0.92)"><path d="M0 0 C18 -8 52 -6 70 6 C52 4 20 8 0 6Z" fill="#b8321f"/><path d="M0 3 C-6 1 -10 -4 -14 -6" stroke="#4c6a2f" stroke-width="3" fill="none" stroke-linecap="round"/></g><g transform="translate(933.3 326.3) rotate(181) scale(1.05)"><path d="M0 0 C10 -14 32 -14 44 0 C32 14 10 14 0 0Z" fill="#5f9442"/><path d="M2 0 L40 0" stroke="#3e6a2a" stroke-width="1.6"/></g><circle cx="960.8" cy="483.8" r="2.4" fill="#1e1611"/><circle cx="973.6" cy="492.5" r="2.4" fill="#1e1611"/><circle cx="960.9" cy="484.7" r="2.4" fill="#1e1611"/><circle cx="959.1" cy="496.5" r="2.4" fill="#1e1611"/><circle cx="969" cy="482.6" r="2.4" fill="#1e1611"/><circle cx="966.6" cy="478.4" r="2.4" fill="#1e1611"/><circle cx="958.8" cy="487.6" r="2.4" fill="#1e1611"/><g transform="translate(972.7 686.5) rotate(128) scale(1.05)"><path d="M0 0 C18 -8 52 -6 70 6 C52 4 20 8 0 6Z" fill="#b8321f"/><path d="M0 3 C-6 1 -10 -4 -14 -6" stroke="#4c6a2f" stroke-width="3" fill="none" stroke-linecap="round"/></g><g transform="translate(922 88.7) rotate(66) scale(0.95)"><ellipse rx="11" ry="6" fill="#8fa05a"/><path d="M-9 0 L9 0" stroke="#6b7c3c" stroke-width="1.2"/></g><g transform="translate(306.1 786.2) rotate(111) scale(0.91)"><path d="M0 0 C10 -14 32 -14 44 0 C32 14 10 14 0 0Z" fill="#5f9442"/><path d="M2 0 L40 0" stroke="#3e6a2a" stroke-width="1.6"/></g><g transform="translate(5.1 95.7) rotate(275) scale(0.93)"><path d="M0 0 C18 -8 52 -6 70 6 C52 4 20 8 0 6Z" fill="#b8321f"/><path d="M0 3 C-6 1 -10 -4 -14 -6" stroke="#4c6a2f" stroke-width="3" fill="none" stroke-linecap="round"/></g><g transform="translate(937.4 272.8) rotate(180) scale(0.84)"><path d="M0 0 C10 -14 32 -14 44 0 C32 14 10 14 0 0Z" fill="#5f9442"/><path d="M2 0 L40 0" stroke="#3e6a2a" stroke-width="1.6"/></g><circle cx="80.1" cy="81.4" r="3.1" fill="#1e1611"/><circle cx="76.3" cy="77.8" r="3.1" fill="#1e1611"/><circle cx="67" cy="70.4" r="3.1" fill="#1e1611"/><circle cx="60.6" cy="68.5" r="3.1" fill="#1e1611"/><circle cx="61.3" cy="92.2" r="3.1" fill="#1e1611"/><circle cx="82" cy="86.4" r="3.1" fill="#1e1611"/><circle cx="44.9" cy="93" r="3.1" fill="#1e1611"/><g transform="translate(28.1 755.6) rotate(189) scale(1.13)"><ellipse rx="11" ry="6" fill="#8fa05a"/><path d="M-9 0 L9 0" stroke="#6b7c3c" stroke-width="1.2"/></g><g transform="translate(973.8 687.8) rotate(155) scale(0.96)"><path d="M0 0 C10 -14 32 -14 44 0 C32 14 10 14 0 0Z" fill="#5f9442"/><path d="M2 0 L40 0" stroke="#3e6a2a" stroke-width="1.6"/></g><g transform="translate(54.8 717.1) rotate(215) scale(1.05)"><ellipse rx="11" ry="6" fill="#8fa05a"/><path d="M-9 0 L9 0" stroke="#6b7c3c" stroke-width="1.2"/></g><g transform="translate(112.2 742.9) rotate(128) scale(0.71)"><rect x="-40" y="-6" width="80" height="12" rx="6" fill="#7a3f1f"/><rect x="-40" y="-2" width="80" height="4" fill="#5c2c14"/></g><g transform="translate(856.5 112.8) rotate(249) scale(0.92)"><ellipse rx="11" ry="6" fill="#8fa05a"/><path d="M-9 0 L9 0" stroke="#6b7c3c" stroke-width="1.2"/></g><circle cx="915.6" cy="144.5" r="3.6" fill="#1e1611"/><circle cx="926" cy="126.1" r="3.6" fill="#1e1611"/><circle cx="946.6" cy="126.1" r="3.6" fill="#1e1611"/><circle cx="945.6" cy="133.9" r="3.6" fill="#1e1611"/><circle cx="950.7" cy="127" r="3.6" fill="#1e1611"/><circle cx="934.1" cy="156.3" r="3.6" fill="#1e1611"/><circle cx="936.5" cy="144.9" r="3.6" fill="#1e1611"/><g transform="translate(937.8 743.5) rotate(331) scale(1.11)"><path d="M0 0 C10 -14 32 -14 44 0 C32 14 10 14 0 0Z" fill="#5f9442"/><path d="M2 0 L40 0" stroke="#3e6a2a" stroke-width="1.6"/></g></g><ellipse cx="500" cy="442.5" rx="297.5" ry="277.7" fill="#000" opacity="0.55" filter="url(#soft)"/><circle cx="500" cy="400" r="283.3" fill="url(#clayBowl)"/><circle cx="500" cy="400" r="238" fill="url(#gheeRoast)"/><circle cx="429.2" cy="315" r="85" fill="#fff" opacity="0.07"/><path d="M587.6 268.1C585.6 277.2 569.3 283.3 561.9 290.2C554.5 297.1 551.4 306.3 542.9 309.7C534.4 313.2 520 314.9 511 310.8C501.9 306.7 489.8 294.1 488.9 285.1C488 276.2 500.9 265.4 505.6 257.2C510.3 249 510.7 241.8 517.1 236.1C523.4 230.3 534.2 222.5 543.6 222.5C553.1 222.5 566.6 228.4 573.9 236C581.3 243.6 589.6 259.1 587.6 268.1Z" fill="url(#meat)"/><path d="M587.5 403.1C586.7 415 579.3 426.5 571.8 436.8C564.4 447.2 553.8 463.2 542.7 465.2C531.5 467.3 517.5 455.7 505.1 449.2C492.8 442.7 473.9 437.4 468.5 426.1C463.2 414.9 467.5 394.3 473 381.8C478.5 369.3 490.5 354.7 501.6 351C512.6 347.3 526.9 357.3 539.3 359.8C551.8 362.2 568.4 358.4 576.4 365.6C584.4 372.9 588.2 391.3 587.5 403.1Z" fill="url(#meat)"/><path d="M406.7 405C406.4 417.3 396.6 431.2 388 441.2C379.5 451.1 366 464.8 355.4 464.6C344.8 464.5 336 446.7 324.4 440.3C312.9 433.9 290.6 435 286.3 426.3C281.9 417.6 292.9 399 298.4 388C303.8 377 309.9 365.6 319.1 360.3C328.3 355 341.7 354.9 353.5 356.1C365.3 357.2 380.9 359.1 389.8 367.3C398.7 375.4 407 392.6 406.7 405Z" fill="url(#meat)"/><path d="M621 364.1C622.8 373.3 630.9 389.2 626.8 396.2C622.6 403.3 605.2 406.9 596 406.5C586.8 406 579 398.4 571.5 393.6C564 388.9 555.4 385.4 550.9 377.8C546.3 370.2 540.7 355.3 544.1 348C547.5 340.7 562.3 340.1 571.2 334.2C580.1 328.4 590.1 311.7 597.6 312.8C605 314 612.1 332.5 616 341.1C619.9 349.7 619.2 354.9 621 364.1Z" fill="url(#meat)"/><path d="M509 288.4C510.3 297.5 507.5 312.7 501.3 319C495 325.3 480.7 326 471.5 326.3C462.3 326.7 454.2 324.8 445.9 321.1C437.6 317.4 425.9 312.1 421.8 304C417.7 295.9 418 281.6 421.5 272.6C425 263.7 434.1 255.8 442.8 250.2C451.4 244.7 465 237 473.4 239.3C481.9 241.7 487.5 256.2 493.4 264.4C499.4 272.5 507.7 279.3 509 288.4Z" fill="url(#meat)"/><path d="M467.2 496.9C467.3 506.7 465.1 516.8 459.7 526.6C454.3 536.4 444.6 553.7 434.7 555.7C424.7 557.7 409.2 545.8 400.2 538.6C391.1 531.5 383.1 522.3 380.3 512.9C377.5 503.4 381 493.3 383.3 482C385.6 470.6 386.2 449.8 394.3 444.9C402.4 440 421.3 448.8 432.1 452.6C442.9 456.4 453.1 460.4 458.9 467.8C464.8 475.2 467 487.1 467.2 496.9Z" fill="url(#meat)"/><circle cx="461.9" cy="361.8" r="5.1" fill="#5f9442"/><circle cx="314.9" cy="523.9" r="5.1" fill="#5f9442"/><circle cx="439.8" cy="451.2" r="5.1" fill="#5f9442"/><circle cx="357.6" cy="341.5" r="5.1" fill="#5f9442"/><circle cx="513" cy="179" r="5.1" fill="#5f9442"/><circle cx="470" cy="420.8" r="5.1" fill="#5f9442"/><circle cx="482.6" cy="213" r="5.1" fill="#5f9442"/><circle cx="614.2" cy="571.4" r="5.1" fill="#5f9442"/><circle cx="480.9" cy="353.3" r="5.1" fill="#5f9442"/><circle cx="513.5" cy="428.1" r="5.1" fill="#5f9442"/><circle cx="564" cy="523.7" r="5.1" fill="#5f9442"/><circle cx="306.1" cy="285.9" r="5.1" fill="#5f9442"/><circle cx="345.7" cy="537.1" r="5.1" fill="#5f9442"/><circle cx="452.6" cy="299.5" r="5.1" fill="#5f9442"/><circle cx="453.6" cy="340.2" r="5.1" fill="#5f9442"/><circle cx="497.4" cy="333.8" r="5.1" fill="#5f9442"/><circle cx="557.3" cy="228.2" r="5.1" fill="#5f9442"/><circle cx="393.4" cy="472.9" r="5.1" fill="#5f9442"/><circle cx="579.2" cy="572" r="5.1" fill="#5f9442"/><circle cx="527.8" cy="554.3" r="5.1" fill="#5f9442"/><circle cx="440.3" cy="389.5" r="5.1" fill="#5f9442"/><circle cx="454.2" cy="438.5" r="5.1" fill="#5f9442"/><circle cx="437.7" cy="266.1" r="5.1" fill="#5f9442"/><circle cx="510" cy="415.3" r="5.1" fill="#5f9442"/><circle cx="477.4" cy="214.5" r="5.1" fill="#5f9442"/><circle cx="503" cy="216.2" r="5.1" fill="#5f9442"/><circle cx="452.1" cy="182.6" r="5.1" fill="#5f9442"/><circle cx="404.5" cy="333.4" r="5.1" fill="#5f9442"/><circle cx="314.2" cy="487.6" r="5.1" fill="#5f9442"/><circle cx="485.5" cy="261.8" r="5.1" fill="#5f9442"/><circle cx="506.1" cy="388.6" r="5.1" fill="#5f9442"/><circle cx="616.7" cy="332.3" r="5.1" fill="#5f9442"/><circle cx="389.4" cy="257.4" r="5.1" fill="#5f9442"/><circle cx="546.3" cy="423.4" r="5.1" fill="#5f9442"/><circle cx="551.6" cy="401.2" r="5.1" fill="#5f9442"/><circle cx="457.2" cy="313.5" r="5.1" fill="#5f9442"/><circle cx="575.6" cy="391" r="5.1" fill="#5f9442"/><circle cx="354.3" cy="299.4" r="5.1" fill="#5f9442"/><circle cx="517.1" cy="395.7" r="5.1" fill="#5f9442"/><circle cx="474.4" cy="435.3" r="5.1" fill="#5f9442"/><circle cx="582.6" cy="476.8" r="5.1" fill="#5f9442"/><circle cx="504.3" cy="389.2" r="5.1" fill="#5f9442"/><circle cx="297.4" cy="429.1" r="5.1" fill="#5f9442"/><circle cx="618.8" cy="376.8" r="5.1" fill="#5f9442"/><circle cx="375.3" cy="270.1" r="5.1" fill="#5f9442"/><circle cx="415.8" cy="312" r="5.1" fill="#5f9442"/><circle cx="464.5" cy="380.6" r="5.1" fill="#5f9442"/><ellipse cx="648.8" cy="467.2" rx="14.2" ry="8.5" fill="#ffd27a" opacity="0.35"/><ellipse cx="534.7" cy="455" rx="14.2" ry="8.5" fill="#ffd27a" opacity="0.35"/><ellipse cx="297.3" cy="357.8" rx="14.2" ry="8.5" fill="#ffd27a" opacity="0.35"/><ellipse cx="554.2" cy="527" rx="14.2" ry="8.5" fill="#ffd27a" opacity="0.35"/><ellipse cx="589.7" cy="494.5" rx="14.2" ry="8.5" fill="#ffd27a" opacity="0.35"/><g transform="translate(379.2 380.4) rotate(222) scale(1.02)"><path d="M0 0 C10 -14 32 -14 44 0 C32 14 10 14 0 0Z" fill="#3f6b2a"/><path d="M2 0 L40 0" stroke="#3e6a2a" stroke-width="1.6"/></g><g transform="translate(457.3 473.6) rotate(285) scale(1.02)"><path d="M0 0 C10 -14 32 -14 44 0 C32 14 10 14 0 0Z" fill="#3f6b2a"/><path d="M2 0 L40 0" stroke="#3e6a2a" stroke-width="1.6"/></g><g transform="translate(586.3 453.4) rotate(169) scale(1.02)"><path d="M0 0 C10 -14 32 -14 44 0 C32 14 10 14 0 0Z" fill="#3f6b2a"/><path d="M2 0 L40 0" stroke="#3e6a2a" stroke-width="1.6"/></g><g transform="translate(462 524.6) rotate(38) scale(1.02)"><path d="M0 0 C10 -14 32 -14 44 0 C32 14 10 14 0 0Z" fill="#3f6b2a"/><path d="M2 0 L40 0" stroke="#3e6a2a" stroke-width="1.6"/></g><path d="M422.9 218.7 c-19.6 -45.3 19.6 -79.3 0 -124.7 s19.6 -68 0 -102" fill="none" stroke="#f5ebd6" stroke-width="5.9" stroke-linecap="round" opacity="0.19" filter="url(#steamBlur)"/><path d="M500.3 218.7 c-21.1 -45.3 21.1 -79.3 0 -124.7 s21.1 -68 0 -102" fill="none" stroke="#f5ebd6" stroke-width="5.9" stroke-linecap="round" opacity="0.12" filter="url(#steamBlur)"/><path d="M572.8 218.7 c-15.9 -45.3 15.9 -79.3 0 -124.7 s15.9 -68 0 -102" fill="none" stroke="#f5ebd6" stroke-width="7.4" stroke-linecap="round" opacity="0.16" filter="url(#steamBlur)"/></svg>