<svg xmlns="http://www.w3.org/2000/svg" viewBox="0 0 1400 700" width="1400" height="700"><defs>
<filter id="soft" x="-30%" y="-30%" width="160%" height="160%"><feGaussianBlur stdDeviation="18"/></filter>
<filter id="steamBlur" x="-50%" y="-50%" width="200%" height="200%"><feGaussianBlur stdDeviation="6"/></filter>
<radialGradient id="table" cx="50%" cy="45%" r="75%"><stop offset="0" stop-color="#3a2a1b"/><stop offset=".55" stop-color="#1d150e"/><stop offset="1" stop-color="#0d0a07"/></radialGradient>
<radialGradient id="glow" cx="50%" cy="40%" r="50%"><stop offset="0" stop-color="#e0a03a" stop-opacity=".22"/><stop offset="1" stop-color="#e0a03a" stop-opacity="0"/></radialGradient>
<radialGradient id="riceBase" cx="50%" cy="80%" r="70%"><stop offset="0" stop-color="#e9c98a"/><stop offset="1" stop-color="#c79a50"/></radialGradient>
<linearGradient id="leafCup" x1="0" y1="0" x2="0" y2="1"><stop offset="0" stop-color="#9d8a4c"/><stop offset=".6" stop-color="#7a6834"/><stop offset="1" stop-color="#4f421e"/></linearGradient>
<radialGradient id="meat" cx="35%" cy="30%" r="75%"><stop offset="0" stop-color="#d98a43"/><stop offset=".6" stop-color="#9c4a1d"/><stop offset="1" stop-color="#5a2410"/></radialGradient>
<radialGradient id="kabab" cx="35%" cy="30%" r="75%"><stop offset="0" stop-color="#f06a35"/><stop offset=".55" stop-color="#c02c14"/><stop offset="1" stop-color="#6e1408"/></radialGradient>
<radialGradient id="mutton" cx="35%" cy="30%" r="75%"><stop offset="0" stop-color="#9a5a2e"/><stop offset=".6" stop-color="#5a2a12"/><stop offset="1" stop-color="#2a1208"/></radialGradient>
<radialGradient id="steel" cx="40%" cy="35%" r="70%"><stop offset="0" stop-color="#e9e6df"/><stop offset=".7" stop-color="#a7a39a"/><stop offset="1" stop-color="#6c6860"/></radialGradient>
<radialGradient id="clayPlate" cx="40%" cy="35%" r="70%"><stop offset="0" stop-color="#9c4d2c"/><stop offset=".8" stop-color="#6e2f18"/><stop offset="1" stop-color="#43190b"/></radialGradient>
<radialGradient id="clayBowl" cx="40%" cy="35%" r="70%"><stop offset="0" stop-color="#b65a32"/><stop offset=".8" stop-color="#7a3519"/><stop offset="1" stop-color="#3f170a"/></radialGradient>
<radialGradient id="gheeRoast" cx="45%" cy="40%" r="65%"><stop offset="0" stop-color="#e2552a"/><stop offset=".7" stop-color="#a8260f"/><stop offset="1" stop-color="#6c1406"/></radialGradient>
<radialGradient id="saaru" cx="45%" cy="40%" r="65%"><stop offset="0" stop-color="#e98a3a"/><stop offset="1" stop-color="#a5481a"/></radialGradient>
<linearGradient id="copper" x1="0" y1="0" x2="1" y2="0"><stop offset="0" stop-color="#5a2a12"/><stop offset=".35" stop-color="#c46a32"/><stop offset=".55" stop-color="#e08a4a"/><stop offset="1" stop-color="#4a200c"/></linearGradient>
<linearGradient id="banana" x1="0" y1="0" x2="1" y2="1"><stop offset="0" stop-color="#5d8c38"/><stop offset=".5" stop-color="#4a7a2a"/><stop offset="1" stop-color="#2f5418"/></linearGradient>
<radialGradient id="ragi" cx="35%" cy="30%" r="75%"><stop offset="0" stop-color="#a0705f"/><stop offset=".6" stop-color="#6a4136"/><stop offset="1" stop-color="#3a221b"/></radialGradient>
<radialGradient id="parotta" cx="40%" cy="35%" r="70%"><stop offset="0" stop-color="#f3cd84"/><stop offset=".7" stop-color="#d79a4c"/><stop offset="1" stop-color="#a5672a"/></radialGradient>
<linearGradient id="glass" x1="0" y1="0" x2="1" y2="0"><stop offset="0" stop-color="#f5ebd6" stop-opacity=".25"/><stop offset=".5" stop-color="#f5ebd6" stop-opacity=".08"/><stop offset="1" stop-color="#f5ebd6" stop-opacity=".22"/></linearGradient>
<linearGradient id="buttermilk" x1="0" y1="0" x2="1" y2="0"><stop offset="0" stop-color="#d9d4c2"/><stop offset=".5" stop-color="#f4f0e2"/><stop offset="1" stop-color="#cfc9b4"/></linearGradient>
<radialGradient id="syrup" cx="45%" cy="40%" r="65%"><stop offset="0" stop-color="#e8a24a"/><stop offset="1" stop-color="#a45a18"/></radialGradient>
<radialGradient id="jamun" cx="35%" cy="30%" r="75%"><stop offset="0" stop-color="#9a3d1a"/><stop offset=".7" stop-color="#5a1e0a"/><stop offset="1" stop-color="#2f0e04"/></radialGradient>
</defs><rect width="1400" height="700" fill="url(#table)"/><rect width="1400" height="700" fill="url(#glow)"/><g opacity="0.85"><g transform="translate(255.6 698.8) rotate(46) scale(0.88)"><path d="M0 0 C4 -6 6 -18 0 -24 C-6 -18 -4 -6 0 0Z" fill="#5a2f1a" transform="rotate(0)"/><path d="M0 0 C4 -6 6 -18 0 -24 C-6 -18 -4 -6 0 0Z" fill="#5a2f1a" transform="rotate(45)"/><path d="M0 0 C4 -6 6 -18 0 -24 C-6 -18 -4 -6 0 0Z" fill="#5a2f1a" transform="rotate(90)"/><path d="M0 0 C4 -6 6 -18 0 -24 C-6 -18 -4 -6 0 0Z" fill="#5a2f1a" transform="rotate(135)"/><path d="M0 0 C4 -6 6 -18 0 -24 C-6 -18 -4 -6 0 0Z" fill="#5a2f1a" transform="rotate(180)"/><path d="M0 0 C4 -6 6 -18 0 -24 C-6 -18 -4 -6 0 0Z" fill="#5a2f1a" transform="rotate(225)"/><path d="M0 0 C4 -6 6 -18 0 -24 C-6 -18 -4 -6 0 0Z" fill="#5a2f1a" transform="rotate(270)"/><path d="M0 0 C4 -6 6 -18 0 -24 C-6 -18 -4 -6 0 0Z" fill="#5a2f1a" transform="rotate(315)"/><circle cx="0" cy="-12" r="2.2" fill="#c08a4a" transform="rotate(0)"/><circle cx="0" cy="-12" r="2.2" fill="#c08a4a" transform="rotate(45)"/><circle cx="0" cy="-12" r="2.2" fill="#c08a4a" transform="rotate(90)"/><circle cx="0" cy="-12" r="2.2" fill="#c08a4a" transform="rotate(135)"/><circle cx="0" cy="-12" r="2.2" fill="#c08a4a" transform="rotate(180)"/><circle cx="0" cy="-12" r="2.2" fill="#c08a4a" transform="rotate(225)"/><circle cx="0" cy="-12" r="2.2" fill="#c08a4a" transform="rotate(270)"/><circle cx="0" cy="-12" r="2.2" fill="#c08a4a" transform="rotate(315)"/></g><g transform="translate(988.2 699.1) rotate(6) scale(0.73)"><path d="M0 0 C10 -14 32 -14 44 0 C32 14 10 14 0 0Z" fill="#5f9442"/><path d="M2 0 L40 0" stroke="#3e6a2a" stroke-width="1.6"/></g><g transform="translate(1383.1 80.9) rotate(227) scale(0.99)"><path d="M0 0 C18 -8 52 -6 70 6 C52 4 20 8 0 6Z" fill="#b8321f"/><path d="M0 3 C-6 1 -10 -4 -14 -6" stroke="#4c6a2f" stroke-width="3" fill="none" stroke-linecap="round"/></g><g transform="translate(1393.2 481.1) rotate(348) scale(1.03)"><ellipse rx="11" ry="6" fill="#8fa05a"/><path d="M-9 0 L9 0" stroke="#6b7c3c" stroke-width="1.2"/></g><g transform="translate(1251.2 647.2) rotate(35) scale(1.16)"><ellipse rx="11" ry="6" fill="#8fa05a"/><path d="M-9 0 L9 0" stroke="#6b7c3c" stroke-width="1.2"/></g><g transform="translate(1186.8 342.7) rotate(140) scale(1.01)"><ellipse rx="11" ry="6" fill="#8fa05a"/><path d="M-9 0 L9 0" stroke="#6b7c3c" stroke-width="1.2"/></g><g transform="translate(1294.5 65.5) rotate(73) scale(0.68)"><path d="M0 0 C18 -8 52 -6 70 6 C52 4 20 8 0 6Z" fill="#b8321f"/><path d="M0 3 C-6 1 -10 -4 -14 -6" stroke="#4c6a2f" stroke-width="3" fill="none" stroke-linecap="round"/></g><g transform="translate(1114.8 59.2) rotate(277) scale(0.74)"><path d="M0 0 C4 -6 6 -18 0 -24 C-6 -18 -4 -6 0 0Z" fill="#5a2f1a" transform="rotate(0)"/><path d="M0 0 C4 -6 6 -18 0 -24 C-6 -18 -4 -6 0 0Z" fill="#5a2f1a" transform="rotate(45)"/><path d="M0 0 C4 -6 6 -18 0 -24 C-6 -18 -4 -6 0 0Z" fill="#5a2f1a" transform="rotate(90)"/><path d="M0 0 C4 -6 6 -18 0 -24 C-6 -18 -4 -6 0 0Z" fill="#5a2f1a" transform="rotate(135)"/><path d="M0 0 C4 -6 6 -18 0 -24 C-6 -18 -4 -6 0 0Z" fill="#5a2f1a" transform="rotate(180)"/><path d="M0 0 C4 -6 6 -18 0 -24 C-6 -18 -4 -6 0 0Z" fill="#5a2f1a" transform="rotate(225)"/><path d="M0 0 C4 -6 6 -18 0 -24 C-6 -18 -4 -6 0 0Z" fill="#5a2f1a" transform="rotate(270)"/><path d="M0 0 C4 -6 6 -18 0 -24 C-6 -18 -4 -6 0 0Z" fill="#5a2f1a" transform="rotate(315)"/><circle cx="0" cy="-12" r="2.2" fill="#c08a4a" transform="rotate(0)"/><circle cx="0" cy="-12" r="2.2" fill="#c08a4a" transform="rotate(45)"/><circle cx="0" cy="-12" r="2.2" fill="#c08a4a" transform="rotate(90)"/><circle cx="0" cy="-12" r="2.2" fill="#c08a4a" transform="rotate(135)"/><circle cx="0" cy="-12" r="2.2" fill="#c08a4a" transform="rotate(180)"/><circle cx="0" cy="-12" r="2.2" fill="#c08a4a" transform="rotate(225)"/><circle cx="0" cy="-12" r="2.2" fill="#c08a4a" transform="rotate(270)"/><circle cx="0" cy="-12" r="2.2" fill="#c08a4a" transform="rotate(315)"/></g><g transform="translate(1112.7 282.5) rotate(128) scale(0.95)"><path d="M0 0 C18 -8 52 -6 70 6 C52 4 20 8 0 6Z" fill="#b8321f"/><path d="M0 3 C-6 1 -10 -4 -14 -6" stroke="#4c6a2f" stroke-width="3" fill="none" stroke-linecap="round"/></g><g transform="translate(1084.3 520.2) rotate(127) scale(0.75)"><path d="M0 0 C10 -14 32 -14 44 0 C32 14 10 14 0 0Z" fill="#5f9442"/><path d="M2 0 L40 0" stroke="#3e6a2a" stroke-width="1.6"/></g><circle cx="1265.3" cy="30.3" r="2.9" fill="#1e1611"/><circle cx="1250.6" cy="35.9" r="2.9" fill="#1e1611"/><circle cx="1274.7" cy="31.4" r="2.9" fill="#1e1611"/><circle cx="1268.5" cy="25.5" r="2.9" fill="#1e1611"/><circle cx="1263.9" cy="21" r="2.9" fill="#1e1611"/><circle cx="1257.1" cy="18.7" r="2.9" fill="#1e1611"/><circle cx="1259.8" cy="19.5" r="2.9" fill="#1e1611"/><g transform="translate(1270.1 558.9) rotate(134) scale(0.57)"><rect x="-40" y="-6" width="80" height="12" rx="6" fill="#7a3f1f"/><rect x="-40" y="-2" width="80" height="4" fill="#5c2c14"/></g><g transform="translate(1294.8 10.8) rotate(201) scale(0.70)"><rect x="-40" y="-6" width="80" height="12" rx="6" fill="#7a3f1f"/><rect x="-40" y="-2" width="80" height="4" fill="#5c2c14"/></g><g transform="translate(1267.2 187.3) rotate(163) scale(1.10)"><ellipse rx="11" ry="6" fill="#8fa05a"/><path d="M-9 0 L9 0" stroke="#6b7c3c" stroke-width="1.2"/></g><circle cx="1209.2" cy="-0.1" r="2.6" fill="#1e1611"/><circle cx="1207.8" cy="9.4" r="2.6" fill="#1e1611"/><circle cx="1222.8" cy="16.1" r="2.6" fill="#1e1611"/><circle cx="1208" cy="13.3" r="2.6" fill="#1e1611"/><circle cx="1207.4" cy="-3.5" r="2.6" fill="#1e1611"/><circle cx="1211.3" cy="-4.8" r="2.6" fill="#1e1611"/><circle cx="1235.1" cy="5.7" r="2.6" fill="#1e1611"/><g transform="translate(256.5 232.9) rotate(56) scale(1.15)"><ellipse rx="11" ry="6" fill="#8fa05a"/><path d="M-9 0 L9 0" stroke="#6b7c3c" stroke-width="1.2"/></g><g transform="translate(197.1 352.8) rotate(254) scale(0.93)"><path d="M0 0 C4 -6 6 -18 0 -24 C-6 -18 -4 -6 0 0Z" fill="#5a2f1a" transform="rotate(0)"/><path d="M0 0 C4 -6 6 -18 0 -24 C-6 -18 -4 -6 0 0Z" fill="#5a2f1a" transform="rotate(45)"/><path d="M0 0 C4 -6 6 -18 0 -24 C-6 -18 -4 -6 0 0Z" fill="#5a2f1a" transform="rotate(90)"/><path d="M0 0 C4 -6 6 -18 0 -24 C-6 -18 -4 -6 0 0Z" fill="#5a2f1a" transform="rotate(135)"/><path d="M0 0 C4 -6 6 -18 0 -24 C-6 -18 -4 -6 0 0Z" fill="#5a2f1a" transform="rotate(180)"/><path d="M0 0 C4 -6 6 -18 0 -24 C-6 -18 -4 -6 0 0Z" fill="#5a2f1a" transform="rotate(225)"/><path d="M0 0 C4 -6 6 -18 0 -24 C-6 -18 -4 -6 0 0Z" fill="#5a2f1a" transform="rotate(270)"/><path d="M0 0 C4 -6 6 -18 0 -24 C-6 -18 -4 -6 0 0Z" fill="#5a2f1a" transform="rotate(315)"/><circle cx="0" cy="-12" r="2.2" fill="#c08a4a" transform="rotate(0)"/><circle cx="0" cy="-12" r="2.2" fill="#c08a4a" transform="rotate(45)"/><circle cx="0" cy="-12" r="2.2" fill="#c08a4a" transform="rotate(90)"/><circle cx="0" cy="-12" r="2.2" fill="#c08a4a" transform="rotate(135)"/><circle cx="0" cy="-12" r="2.2" fill="#c08a4a" transform="rotate(180)"/><circle cx="0" cy="-12" r="2.2" fill="#c08a4a" transform="rotate(225)"/><circle cx="0" cy="-12" r="2.2" fill="#c08a4a" transform="rotate(270)"/><circle cx="0" cy="-12" r="2.2" fill="#c08a4a" transform="rotate(315)"/></g><g transform="translate(1284.7 461.7) rotate(41) scale(0.68)"><path d="M0 0 C10 -14 32 -14 44 0 C32 14 10 14 0 0Z" fill="#5f9442"/><path d="M2 0 L40 0" stroke="#3e6a2a" stroke-width="1.6"/></g><g transform="translate(267.5 107.4) rotate(144) scale(1.00)"><path d="M0 0 C4 -6 6 -18 0 -24 C-6 -18 -4 -6 0 0Z" fill="#5a2f1a" transform="rotate(0)"/><path d="M0 0 C4 -6 6 -18 0 -24 C-6 -18 -4 -6 0 0Z" fill="#5a2f1a" transform="rotate(45)"/><path d="M0 0 C4 -6 6 -18 0 -24 C-6 -18 -4 -6 0 0Z" fill="#5a2f1a" transform="rotate(90)"/><path d="M0 0 C4 -6 6 -18 0 -24 C-6 -18 -4 -6 0 0Z" fill="#5a2f1a" transform="rotate(135)"/><path d="M0 0 C4 -6 6 -18 0 -24 C-6 -18 -4 -6 0 0Z" fill="#5a2f1a" transform="rotate(180)"/><path d="M0 0 C4 -6 6 -18 0 -24 C-6 -18 -4 -6 0 0Z" fill="#5a2f1a" transform="rotate(225)"/><path d="M0 0 C4 -6 6 -18 0 -24 C-6 -18 -4 -6 0 0Z" fill="#5a2f1a" transform="rotate(270)"/><path d="M0 0 C4 -6 6 -18 0 -24 C-6 -18 -4 -6 0 0Z" fill="#5a2f1a" transform="rotate(315)"/><circle cx="0" cy="-12" r="2.2" fill="#c08a4a" transform="rotate(0)"/><circle cx="0" cy="-12" r="2.2" fill="#c08a4a" transform="rotate(45)"/><circle cx="0" cy="-12" r="2.2" fill="#c08a4a" transform="rotate(90)"/><circle cx="0" cy="-12" r="2.2" fill="#c08a4a" transform="rotate(135)"/><circle cx="0" cy="-12" r="2.2" fill="#c08a4a" transform="rotate(180)"/><circle cx="0" cy="-12" r="2.2" fill="#c08a4a" transform="rotate(225)"/><circle cx="0" cy="-12" r="2.2" fill="#c08a4a" transform="rotate(270)"/><circle cx="0" cy="-12" r="2.2" fill="#c08a4a" transform="rotate(315)"/></g><g transform="translate(1341.1 594.6) rotate(51) scale(0.61)"><rect x="-40" y="-6" width="80" height="12" rx="6" fill="#7a3f1f"/><rect x="-40" y="-2" width="80" height="4" fill="#5c2c14"/></g><circle cx="90.8" cy="161.4" r="2.7" fill="#1e1611"/><circle cx="86.4" cy="158.6" r="2.7" fill="#1e1611"/><circle cx="100.1" cy="160" r="2.7" fill="#1e1611"/><circle cx="76.8" cy="142.5" r="2.7" fill="#1e1611"/><circle cx="98.9" cy="138.3" r="2.7" fill="#1e1611"/><circle cx="80.4" cy="149.2" r="2.7" fill="#1e1611"/><circle cx="92" cy="151.7" r="2.7" fill="#1e1611"/><g transform="translate(1249.6 184.8) rotate(144) scale(0.97)"><ellipse rx="11" ry="6" fill="#8fa05a"/><path d="M-9 0 L9 0" stroke="#6b7c3c" stroke-width="1.2"/></g><g transform="translate(1315.6 169.5) rotate(112) scale(0.76)"><rect x="-40" y="-6" width="80" height="12" rx="6" fill="#7a3f1f"/><rect x="-40" y="-2" width="80" height="4" fill="#5c2c14"/></g></g><ellipse cx="700" cy="384.6" rx="293.9" ry="273.8" fill="#000" opacity="0.5" filter="url(#soft)"/><circle cx="700" cy="350" r="288.2" fill="url(#clayPlate)"/><circle cx="700" cy="350" r="230.5" fill="none" stroke="#000" stroke-opacity="0.18" stroke-width="8.6"/><path d="M719.7 271.8C719.9 280.8 702.8 293.6 692.5 299.4C682.2 305.2 668 307.9 657.9 306.7C647.9 305.5 640 298.2 632.2 292.4C624.3 286.6 613.9 280.9 611 271.8C608.1 262.6 607 243.2 614.8 237.3C622.7 231.4 645.2 234.9 657.9 236.2C670.7 237.6 680.9 239.2 691.2 245.1C701.5 251.1 719.5 262.7 719.7 271.8Z" fill="url(#mutton)"/><path d="M759.5 274.5C761.2 282.6 762 296.4 755.4 302.8C748.8 309.2 729.9 314.2 720 312.7C710 311.3 703.2 300.3 695.6 294C688 287.6 675.6 282.1 674.2 274.5C672.7 266.8 679.2 253.4 686.8 247.9C694.4 242.4 710.2 240.5 720 241.6C729.7 242.6 738.7 248.7 745.3 254.2C751.9 259.7 757.9 266.4 759.5 274.5Z" fill="url(#mutton)"/><path d="M644.4 408.7C642.5 417.1 638.1 424.7 631.6 429.5C625.1 434.3 616.6 435.6 605.6 437.5C594.7 439.3 575.6 445.2 566 440.4C556.4 435.6 546.9 418.4 548 408.7C549 398.9 562.6 388.6 572.2 381.9C581.8 375.3 593.8 369.2 605.6 368.7C617.4 368.2 636.4 372.2 642.8 378.9C649.3 385.6 646.3 400.3 644.4 408.7Z" fill="url(#mutton)"/><path d="M646.8 355.6C645.8 363 627 368.3 618.2 375.3C609.3 382.4 601.7 397.9 593.5 397.8C585.4 397.8 577 382 569.3 375C561.5 368 549.3 363.9 547 355.6C544.7 347.3 547.6 329.5 555.4 325.1C563.2 320.8 582.1 328.6 593.5 329.6C605 330.6 615.2 326.8 624.1 331.2C633 335.5 647.8 348.3 646.8 355.6Z" fill="url(#mutton)"/><path d="M602.5 352.6C602.1 361.3 586.6 370.1 577.2 377.4C567.8 384.7 557.3 396 546.2 396.6C535.1 397.2 519.6 388.4 510.7 381C501.8 373.7 491.8 361.2 493 352.6C494.2 344.1 508.9 334.4 517.8 329.9C526.7 325.5 535.8 326.6 546.2 325.9C556.6 325.2 570.6 321.1 580 325.6C589.4 330.1 603 344 602.5 352.6Z" fill="url(#mutton)"/><path d="M622.3 386.4C623.7 394 619.6 405.8 612.6 412.7C605.5 419.5 589 428.6 579.7 427.3C570.3 426 561.8 411.8 556.4 405C551.1 398.2 548.1 393.1 547.4 386.4C546.8 379.7 547.3 371.6 552.7 364.8C558.1 357.9 571.2 344.8 579.7 345.2C588.2 345.6 596.8 360.2 603.9 367C610.9 373.9 620.8 378.8 622.3 386.4Z" fill="url(#mutton)"/><path d="M731.7 315.8C731.1 322.7 722.9 330 716.3 335.1C709.8 340.1 701.5 345.1 692.3 346C683.1 347 668.2 345.7 661.1 340.7C654.1 335.7 648.6 323 649.9 315.8C651.2 308.6 662.1 302.9 669.2 297.3C676.3 291.8 683.8 282.9 692.3 282.3C700.8 281.6 713.5 287.9 720.1 293.5C726.7 299.1 732.3 308.9 731.7 315.8Z" fill="url(#mutton)"/><path d="M827.9 206.9C827.2 215.5 820.1 225.6 812.5 231.1C804.8 236.7 792.2 240.2 782.2 240.1C772.1 240.1 759.7 236.3 752.4 230.7C745 225.2 738.4 215.3 737.8 206.9C737.2 198.5 741.3 186.8 748.7 180.1C756.1 173.5 770.9 167.2 782.2 167.1C793.4 167 808.7 172.9 816.3 179.6C824 186.2 828.5 198.3 827.9 206.9Z" fill="url(#mutton)"/><path d="M863 371.8C864.3 380 866.7 393.1 860.6 399.3C854.4 405.5 837 409.5 826.2 409C815.4 408.4 801.1 402.2 795.9 396C790.7 389.8 793.9 378.8 795.1 371.8C796.4 364.8 798.5 359.6 803.7 353.8C808.9 348 817.9 337.4 826.2 336.8C834.4 336.2 847 344.4 853.1 350.2C859.3 356.1 861.8 363.6 863 371.8Z" fill="url(#mutton)"/><path d="M654.3 485.6C654.8 493.4 642.6 503.4 634 510.3C625.5 517.2 613.9 526.7 603.1 527.1C592.4 527.4 575.1 519.3 569.5 512.4C564 505.5 568.1 493.3 569.7 485.6C571.2 477.9 573.4 472.9 579 466.3C584.6 459.7 594.5 446.3 603.1 445.9C611.8 445.4 622.3 456.8 630.8 463.4C639.3 470 653.8 477.8 654.3 485.6Z" fill="url(#mutton)"/><path d="M752.8 421.3C754.1 429 742.5 442.2 733.8 447.5C725.2 452.7 712.7 452.4 701.1 452.9C689.6 453.4 670.4 455.8 664.5 450.6C658.6 445.3 665.7 431 665.7 421.3C665.6 411.5 658.5 399.1 664.4 391.9C670.4 384.8 690.8 376.7 701.1 378.2C711.4 379.7 717.9 393.8 726.5 401C735.1 408.2 751.6 413.5 752.8 421.3Z" fill="url(#mutton)"/><path d="M635.2 359.5C635 366.4 633.2 375.5 627.8 379.6C622.4 383.8 612.8 382.9 602.7 384.3C592.6 385.7 575.3 392 567.2 387.9C559.2 383.8 554.3 368.9 554.4 359.5C554.6 350.2 560.3 336.4 568.3 332C576.4 327.7 592.6 332.3 602.7 333.4C612.8 334.4 623.6 334.2 629 338.5C634.4 342.9 635.4 352.7 635.2 359.5Z" fill="url(#mutton)"/><path d="M639.3 450.6C638.9 462.4 629 477.9 618.3 485.1C607.5 492.3 588.2 494.8 575.1 493.8C561.9 492.8 545.8 486.4 539.3 479.2C532.8 472 534.5 458.8 536.1 450.6C537.8 442.4 542.8 437.2 549.3 429.9C555.8 422.7 563.1 409.8 575.1 407.1C587 404.5 610.1 406.7 620.8 414C631.5 421.2 639.8 438.7 639.3 450.6Z" fill="url(#mutton)"/><circle cx="782.7" cy="339.8" r="4.5" fill="#1a120d"/><circle cx="741.3" cy="311.6" r="5" fill="#1a120d"/><circle cx="629.9" cy="299.3" r="4.2" fill="#1a120d"/><circle cx="715.9" cy="374.5" r="4" fill="#1a120d"/><circle cx="862.9" cy="337.7" r="3.3" fill="#1a120d"/><circle cx="701.1" cy="321.8" r="4.6" fill="#1a120d"/><circle cx="858.3" cy="263" r="5.3" fill="#1a120d"/><circle cx="825.8" cy="343.9" r="3.4" fill="#1a120d"/><circle cx="696.8" cy="483.5" r="4.6" fill="#1a120d"/><circle cx="728.9" cy="332.1" r="5.3" fill="#1a120d"/><circle cx="595.4" cy="294.7" r="3.6" fill="#1a120d"/><circle cx="636.9" cy="430.9" r="5" fill="#1a120d"/><circle cx="645.3" cy="234.4" r="4.9" fill="#1a120d"/><circle cx="659.8" cy="403.5" r="5.5" fill="#1a120d"/><circle cx="646.3" cy="252.1" r="5.5" fill="#1a120d"/><circle cx="795" cy="242" r="5.5" fill="#1a120d"/><circle cx="562.4" cy="473.1" r="4.6" fill="#1a120d"/><circle cx="628.3" cy="386.1" r="3.4" fill="#1a120d"/><circle cx="846.9" cy="222.9" r="4.2" fill="#1a120d"/><circle cx="724.6" cy="341.4" r="4.3" fill="#1a120d"/><circle cx="826" cy="343.9" r="3.7" fill="#1a120d"/><circle cx="696.6" cy="346.1" r="4.9" fill="#1a120d"/><circle cx="590.3" cy="283.1" r="4.8" fill="#1a120d"/><circle cx="844.5" cy="450.5" r="5" fill="#1a120d"/><circle cx="736" cy="321.2" r="3.8" fill="#1a120d"/><circle cx="668" cy="168.8" r="4.6" fill="#1a120d"/><circle cx="703.9" cy="438" r="3.9" fill="#1a120d"/><circle cx="509.8" cy="370.6" r="4.8" fill="#1a120d"/><circle cx="753.4" cy="524.7" r="5.3" fill="#1a120d"/><circle cx="699.9" cy="350.1" r="4.8" fill="#1a120d"/><circle cx="688.6" cy="372.7" r="5.3" fill="#1a120d"/><circle cx="673.5" cy="369.3" r="4" fill="#1a120d"/><circle cx="770" cy="347.7" r="4.4" fill="#1a120d"/><circle cx="699.9" cy="366.2" r="3.6" fill="#1a120d"/><circle cx="784.7" cy="383" r="4.3" fill="#1a120d"/><circle cx="652" cy="190.8" r="5.3" fill="#1a120d"/><circle cx="771" cy="435.7" r="3.6" fill="#1a120d"/><circle cx="677.9" cy="423.9" r="4.2" fill="#1a120d"/><circle cx="746.8" cy="279.4" r="3.7" fill="#1a120d"/><circle cx="658" cy="319.5" r="5.3" fill="#1a120d"/><circle cx="724.1" cy="369.4" r="3.5" fill="#1a120d"/><circle cx="654.8" cy="499.5" r="3.5" fill="#1a120d"/><circle cx="560.8" cy="237.5" r="3.8" fill="#1a120d"/><circle cx="694.6" cy="205.8" r="5.5" fill="#1a120d"/><circle cx="774.8" cy="249.3" r="4.3" fill="#1a120d"/><circle cx="683.6" cy="368" r="3.4" fill="#1a120d"/><circle cx="665" cy="305.6" r="3.7" fill="#1a120d"/><circle cx="671.3" cy="354" r="4.7" fill="#1a120d"/><circle cx="770.8" cy="327.6" r="3.4" fill="#1a120d"/><circle cx="731.1" cy="404.1" r="5.3" fill="#1a120d"/><circle cx="813.7" cy="308.9" r="4.2" fill="#1a120d"/><circle cx="838.1" cy="444.4" r="3.4" fill="#1a120d"/><circle cx="690.7" cy="495.9" r="4.9" fill="#1a120d"/><circle cx="777.8" cy="531.5" r="4.8" fill="#1a120d"/><circle cx="682.4" cy="306.9" r="5.1" fill="#1a120d"/><circle cx="818.4" cy="369.6" r="3.4" fill="#1a120d"/><circle cx="726.7" cy="235.4" r="4.6" fill="#1a120d"/><circle cx="592.2" cy="462.8" r="3.4" fill="#1a120d"/><circle cx="701.3" cy="351.9" r="4.7" fill="#1a120d"/><circle cx="701.3" cy="350.5" r="5.2" fill="#1a120d"/><circle cx="671.4" cy="416.7" r="5.2" fill="#1a120d"/><circle cx="585.2" cy="472.4" r="5.5" fill="#1a120d"/><circle cx="736.9" cy="379.4" r="3.3" fill="#1a120d"/><circle cx="689.9" cy="467.8" r="5.5" fill="#1a120d"/><circle cx="739.9" cy="212" r="3.6" fill="#1a120d"/><circle cx="777.5" cy="311.7" r="5" fill="#1a120d"/><circle cx="766.3" cy="532.8" r="4.2" fill="#1a120d"/><circle cx="654.3" cy="515.9" r="4.8" fill="#1a120d"/><circle cx="627" cy="402.5" r="5" fill="#1a120d"/><circle cx="623.1" cy="421.9" r="4.4" fill="#1a120d"/><g transform="translate(661.9 293.5) rotate(132) scale(1.10)"><path d="M0 0 C10 -14 32 -14 44 0 C32 14 10 14 0 0Z" fill="#3f6b2a"/><path d="M2 0 L40 0" stroke="#3e6a2a" stroke-width="1.6"/></g><g transform="translate(687.3 522.3) rotate(296) scale(1.10)"><path d="M0 0 C10 -14 32 -14 44 0 C32 14 10 14 0 0Z" fill="#3f6b2a"/><path d="M2 0 L40 0" stroke="#3e6a2a" stroke-width="1.6"/></g><g transform="translate(576.9 224.2) rotate(201) scale(1.10)"><path d="M0 0 C10 -14 32 -14 44 0 C32 14 10 14 0 0Z" fill="#3f6b2a"/><path d="M2 0 L40 0" stroke="#3e6a2a" stroke-width="1.6"/></g><g transform="translate(757.1 206.5) rotate(313) scale(1.10)"><path d="M0 0 C10 -14 32 -14 44 0 C32 14 10 14 0 0Z" fill="#3f6b2a"/><path d="M2 0 L40 0" stroke="#3e6a2a" stroke-width="1.6"/></g><g transform="translate(755.3 425.8) rotate(150) scale(1.10)"><path d="M0 0 C10 -14 32 -14 44 0 C32 14 10 14 0 0Z" fill="#3f6b2a"/><path d="M2 0 L40 0" stroke="#3e6a2a" stroke-width="1.6"/></g><g transform="translate(635.3 518.9) rotate(276) scale(1.10)"><path d="M0 0 C10 -14 32 -14 44 0 C32 14 10 14 0 0Z" fill="#3f6b2a"/><path d="M2 0 L40 0" stroke="#3e6a2a" stroke-width="1.6"/></g><g transform="translate(678.1 404.5) rotate(74) scale(1.10)"><path d="M0 0 C10 -14 32 -14 44 0 C32 14 10 14 0 0Z" fill="#3f6b2a"/><path d="M2 0 L40 0" stroke="#3e6a2a" stroke-width="1.6"/></g><path d="M685.6 426.5 q22.2 -15.5 44.3 0" stroke="#e7b8c4" stroke-width="6.7" fill="none"/><path d="M729.2 213.7 q22.2 -15.5 44.3 0" stroke="#e7b8c4" stroke-width="6.7" fill="none"/><path d="M641.1 474.9 q22.2 -15.5 44.3 0" stroke="#e7b8c4" stroke-width="6.7" fill="none"/><path d="M797.8 390.4 q22.2 -15.5 44.3 0" stroke="#e7b8c4" stroke-width="6.7" fill="none"/><path d="M679.6 304.6 q22.2 -15.5 44.3 0" stroke="#e7b8c4" stroke-width="6.7" fill="none"/></svg>