<svg xmlns="http://www.w3.org/2000/svg" viewBox="0 0 1400 700" width="1400" height="700"><defs>
<filter id="soft" x="-30%" y="-30%" width="160%" height="160%"><feGaussianBlur stdDeviation="18"/></filter>
<filter id="steamBlur" x="-50%" y="-50%" width="200%" height="200%"><feGaussianBlur stdDeviation="6"/></filter>
<radialGradient id="table" cx="50%" cy="45%" r="75%"><stop offset="0" stop-color="#3a2a1b"/><stop offset=".55" stop-color="#1d150e"/><stop offset="1" stop-color="#0d0a07"/></radialGradient>
<radialGradient id="glow" cx="50%" cy="40%" r="50%"><stop offset="0" stop-color="#e0a03a" stop-opacity=".22"/><stop offset="1" stop-color="#e0a03a" stop-opacity="0"/></radialGradient>
<radialGradient id="riceBase" cx="50%" cy="80%" r="70%"><stop offset="0" stop-color="#e9c98a"/><stop offset="1" stop-color="#c79a50"/></radialGradient>
<linearGradient id="leafCup" x1="0" y1="0" x2="0" y2="1"><stop offset="0" stop-color="#9d8a4c"/><stop offset=".6" stop-color="#7a6834"/><stop offset="1" stop-color="#4f421e"/></linearGradient>
<radialGradient id="meat" cx="35%" cy="30%" r="75%"><stop offset="0" stop-color="#d98a43"/><stop offset=".6" stop-color="#9c4a1d"/><stop offset="1" stop-color="#5a2410"/></radialGradient>
<radialGradient id="kabab" cx="35%" cy="30%" r="75%"><stop offset="0" stop-color="#f06a35"/><stop offset=".55" stop-color="#c02c14"/><stop offset="1" stop-color="#6e1408"/></radialGradient>
<radialGradient id="mutton" cx="35%" cy="30%" r="75%"><stop offset="0" stop-color="#9a5a2e"/><stop offset=".6" stop-color="#5a2a12"/><stop offset="1" stop-color="#2a1208"/></radialGradient>
<radialGradient id="steel" cx="40%" cy="35%" r="70%"><stop offset="0" stop-color="#e9e6df"/><stop offset=".7" stop-color="#a7a39a"/><stop offset="1" stop-color="#6c6860"/></radialGradient>
<radialGradient id="clayPlate" cx="40%" cy="35%" r="70%"><stop offset="0" stop-color="#9c4d2c"/><stop offset=".8" stop-color="#6e2f18"/><stop offset="1" stop-color="#43190b"/></radialGradient>
<radialGradient id="clayBowl" cx="40%" cy="35%" r="70%"><stop offset="0" stop-color="#b65a32"/><stop offset=".8" stop-color="#7a3519"/><stop offset="1" stop-color="#3f170a"/></radialGradient>
<radialGradient id="gheeRoast" cx="45%" cy="40%" r="65%"><stop offset="0" stop-color="#e2552a"/><stop offset=".7" stop-color="#a8260f"/><stop offset="1" stop-color="#6c1406"/></radialGradient>
<radialGradient id="saaru" cx="45%" cy="40%" r="65%"><stop offset="0" stop-color="#e98a3a"/><stop offset="1" stop-color="#a5481a"/></radialGradient>
<linearGradient id="copper" x1="0" y1="0" x2="1" y2="0"><stop offset="0" stop-color="#5a2a12"/><stop offset=".35" stop-color="#c46a32"/><stop offset=".55" stop-color="#e08a4a"/><stop offset="1" stop-color="#4a200c"/></linearGradient>
<linearGradient id="banana" x1="0" y1="0" x2="1" y2="1"><stop offset="0" stop-color="#5d8c38"/><stop offset=".5" stop-color="#4a7a2a"/><stop offset="1" stop-color="#2f5418"/></linearGradient>
<radialGradient id="ragi" cx="35%" cy="30%" r="75%"><stop offset="0" stop-color="#a0705f"/><stop offset=".6" stop-color="#6a4136"/><stop offset="1" stop-color="#3a221b"/></radialGradient>
<radialGradient id="parotta" cx="40%" cy="35%" r="70%"><stop offset="0" stop-color="#f3cd84"/><stop offset=".7" stop-color="#d79a4c"/><stop offset="1" stop-color="#a5672a"/></radialGradient>
<linearGradient id="glass" x1="0" y1="0" x2="1" y2="0"><stop offset="0" stop-color="#f5ebd6" stop-opacity=".25"/><stop offset=".5" stop-color="#f5ebd6" stop-opacity=".08"/><stop offset="1" stop-color="#f5ebd6" stop-opacity=".22"/></linearGradient>
<linearGradient id="buttermilk" x1="0" y1="0" x2="1" y2="0"><stop offset="0" stop-color="#d9d4c2"/><stop offset=".5" stop-color="#f4f0e2"/><stop offset="1" stop-color="#cfc9b4"/></linearGradient>
<radialGradient id="syrup" cx="45%" cy="40%" r="65%"><stop offset="0" stop-color="#e8a24a"/><stop offset="1" stop-color="#a45a18"/></radialGradient>
<radialGradient id="jamun" cx="35%" cy="30%" r="75%"><stop offset="0" stop-color="#9a3d1a"/><stop offset=".7" stop-color="#5a1e0a"/><stop offset="1" stop-color="#2f0e04"/></radialGradient>
</defs><rect width="1400" height="700" fill="url(#table)"/><rect width="1400" height="700" fill="url(#glow)"/><g opacity="0.85"><g transform="translate(1339.9 137.5) rotate(170) scale(0.94)"><path d="M0 0 C4 -6 6 -18 0 -24 C-6 -18 -4 -6 0 0Z" fill="#5a2f1a" transform="rotate(0)"/><path d="M0 0 C4 -6 6 -18 0 -24 C-6 -18 -4 -6 0 0Z" fill="#5a2f1a" transform="rotate(45)"/><path d="M0 0 C4 -6 6 -18 0 -24 C-6 -18 -4 -6 0 0Z" fill="#5a2f1a" transform="rotate(90)"/><path d="M0 0 C4 -6 6 -18 0 -24 C-6 -18 -4 -6 0 0Z" fill="#5a2f1a" transform="rotate(135)"/><path d="M0 0 C4 -6 6 -18 0 -24 C-6 -18 -4 -6 0 0Z" fill="#5a2f1a" transform="rotate(180)"/><path d="M0 0 C4 -6 6 -18 0 -24 C-6 -18 -4 -6 0 0Z" fill="#5a2f1a" transform="rotate(225)"/><path d="M0 0 C4 -6 6 -18 0 -24 C-6 -18 -4 -6 0 0Z" fill="#5a2f1a" transform="rotate(270)"/><path d="M0 0 C4 -6 6 -18 0 -24 C-6 -18 -4 -6 0 0Z" fill="#5a2f1a" transform="rotate(315)"/><circle cx="0" cy="-12" r="2.2" fill="#c08a4a" transform="rotate(0)"/><circle cx="0" cy="-12" r="2.2" fill="#c08a4a" transform="rotate(45)"/><circle cx="0" cy="-12" r="2.2" fill="#c08a4a" transform="rotate(90)"/><circle cx="0" cy="-12" r="2.2" fill="#c08a4a" transform="rotate(135)"/><circle cx="0" cy="-12" r="2.2" fill="#c08a4a" transform="rotate(180)"/><circle cx="0" cy="-12" r="2.2" fill="#c08a4a" transform="rotate(225)"/><circle cx="0" cy="-12" r="2.2" fill="#c08a4a" transform="rotate(270)"/><circle cx="0" cy="-12" r="2.2" fill="#c08a4a" transform="rotate(315)"/></g><g transform="translate(354.1 583.9) rotate(122) scale(0.72)"><path d="M0 0 C18 -8 52 -6 70 6 C52 4 20 8 0 6Z" fill="#b8321f"/><path d="M0 3 C-6 1 -10 -4 -14 -6" stroke="#4c6a2f" stroke-width="3" fill="none" stroke-linecap="round"/></g><g transform="translate(1284.9 401.1) rotate(213) scale(0.95)"><path d="M0 0 C4 -6 6 -18 0 -24 C-6 -18 -4 -6 0 0Z" fill="#5a2f1a" transform="rotate(0)"/><path d="M0 0 C4 -6 6 -18 0 -24 C-6 -18 -4 -6 0 0Z" fill="#5a2f1a" transform="rotate(45)"/><path d="M0 0 C4 -6 6 -18 0 -24 C-6 -18 -4 -6 0 0Z" fill="#5a2f1a" transform="rotate(90)"/><path d="M0 0 C4 -6 6 -18 0 -24 C-6 -18 -4 -6 0 0Z" fill="#5a2f1a" transform="rotate(135)"/><path d="M0 0 C4 -6 6 -18 0 -24 C-6 -18 -4 -6 0 0Z" fill="#5a2f1a" transform="rotate(180)"/><path d="M0 0 C4 -6 6 -18 0 -24 C-6 -18 -4 -6 0 0Z" fill="#5a2f1a" transform="rotate(225)"/><path d="M0 0 C4 -6 6 -18 0 -24 C-6 -18 -4 -6 0 0Z" fill="#5a2f1a" transform="rotate(270)"/><path d="M0 0 C4 -6 6 -18 0 -24 C-6 -18 -4 -6 0 0Z" fill="#5a2f1a" transform="rotate(315)"/><circle cx="0" cy="-12" r="2.2" fill="#c08a4a" transform="rotate(0)"/><circle cx="0" cy="-12" r="2.2" fill="#c08a4a" transform="rotate(45)"/><circle cx="0" cy="-12" r="2.2" fill="#c08a4a" transform="rotate(90)"/><circle cx="0" cy="-12" r="2.2" fill="#c08a4a" transform="rotate(135)"/><circle cx="0" cy="-12" r="2.2" fill="#c08a4a" transform="rotate(180)"/><circle cx="0" cy="-12" r="2.2" fill="#c08a4a" transform="rotate(225)"/><circle cx="0" cy="-12" r="2.2" fill="#c08a4a" transform="rotate(270)"/><circle cx="0" cy="-12" r="2.2" fill="#c08a4a" transform="rotate(315)"/></g><circle cx="1377.1" cy="19.2" r="2.8" fill="#1e1611"/><circle cx="1393.6" cy="1.8" r="2.8" fill="#1e1611"/><circle cx="1400.8" cy="-0.3" r="2.8" fill="#1e1611"/><circle cx="1406.4" cy="14.6" r="2.8" fill="#1e1611"/><circle cx="1404.1" cy="15.7" r="2.8" fill="#1e1611"/><circle cx="1373.7" cy="12.9" r="2.8" fill="#1e1611"/><circle cx="1375.3" cy="7.5" r="2.8" fill="#1e1611"/><g transform="translate(212.3 378.2) rotate(332) scale(1.00)"><path d="M0 0 C4 -6 6 -18 0 -24 C-6 -18 -4 -6 0 0Z" fill="#5a2f1a" transform="rotate(0)"/><path d="M0 0 C4 -6 6 -18 0 -24 C-6 -18 -4 -6 0 0Z" fill="#5a2f1a" transform="rotate(45)"/><path d="M0 0 C4 -6 6 -18 0 -24 C-6 -18 -4 -6 0 0Z" fill="#5a2f1a" transform="rotate(90)"/><path d="M0 0 C4 -6 6 -18 0 -24 C-6 -18 -4 -6 0 0Z" fill="#5a2f1a" transform="rotate(135)"/><path d="M0 0 C4 -6 6 -18 0 -24 C-6 -18 -4 -6 0 0Z" fill="#5a2f1a" transform="rotate(180)"/><path d="M0 0 C4 -6 6 -18 0 -24 C-6 -18 -4 -6 0 0Z" fill="#5a2f1a" transform="rotate(225)"/><path d="M0 0 C4 -6 6 -18 0 -24 C-6 -18 -4 -6 0 0Z" fill="#5a2f1a" transform="rotate(270)"/><path d="M0 0 C4 -6 6 -18 0 -24 C-6 -18 -4 -6 0 0Z" fill="#5a2f1a" transform="rotate(315)"/><circle cx="0" cy="-12" r="2.2" fill="#c08a4a" transform="rotate(0)"/><circle cx="0" cy="-12" r="2.2" fill="#c08a4a" transform="rotate(45)"/><circle cx="0" cy="-12" r="2.2" fill="#c08a4a" transform="rotate(90)"/><circle cx="0" cy="-12" r="2.2" fill="#c08a4a" transform="rotate(135)"/><circle cx="0" cy="-12" r="2.2" fill="#c08a4a" transform="rotate(180)"/><circle cx="0" cy="-12" r="2.2" fill="#c08a4a" transform="rotate(225)"/><circle cx="0" cy="-12" r="2.2" fill="#c08a4a" transform="rotate(270)"/><circle cx="0" cy="-12" r="2.2" fill="#c08a4a" transform="rotate(315)"/></g><g transform="translate(21.1 545.8) rotate(212) scale(1.01)"><ellipse rx="11" ry="6" fill="#8fa05a"/><path d="M-9 0 L9 0" stroke="#6b7c3c" stroke-width="1.2"/></g><circle cx="86.5" cy="704" r="2.6" fill="#1e1611"/><circle cx="80.6" cy="694.4" r="2.6" fill="#1e1611"/><circle cx="91.5" cy="698" r="2.6" fill="#1e1611"/><circle cx="80.4" cy="703.6" r="2.6" fill="#1e1611"/><circle cx="90.6" cy="688.4" r="2.6" fill="#1e1611"/><circle cx="85.8" cy="687.7" r="2.6" fill="#1e1611"/><circle cx="86" cy="688.9" r="2.6" fill="#1e1611"/><g transform="translate(303.2 541.4) rotate(350) scale(0.87)"><rect x="-40" y="-6" width="80" height="12" rx="6" fill="#7a3f1f"/><rect x="-40" y="-2" width="80" height="4" fill="#5c2c14"/></g><g transform="translate(169.3 414.8) rotate(358) scale(0.84)"><ellipse rx="11" ry="6" fill="#8fa05a"/><path d="M-9 0 L9 0" stroke="#6b7c3c" stroke-width="1.2"/></g><g transform="translate(1254 590.8) rotate(116) scale(0.86)"><path d="M0 0 C10 -14 32 -14 44 0 C32 14 10 14 0 0Z" fill="#5f9442"/><path d="M2 0 L40 0" stroke="#3e6a2a" stroke-width="1.6"/></g><g transform="translate(1045 581.7) rotate(21) scale(0.65)"><path d="M0 0 C10 -14 32 -14 44 0 C32 14 10 14 0 0Z" fill="#5f9442"/><path d="M2 0 L40 0" stroke="#3e6a2a" stroke-width="1.6"/></g><g transform="translate(256.8 596.1) rotate(236) scale(0.81)"><ellipse rx="11" ry="6" fill="#8fa05a"/><path d="M-9 0 L9 0" stroke="#6b7c3c" stroke-width="1.2"/></g><g transform="translate(225.8 374.5) rotate(155) scale(1.21)"><ellipse rx="11" ry="6" fill="#8fa05a"/><path d="M-9 0 L9 0" stroke="#6b7c3c" stroke-width="1.2"/></g><g transform="translate(1134.4 503.1) rotate(29) scale(1.01)"><ellipse rx="11" ry="6" fill="#8fa05a"/><path d="M-9 0 L9 0" stroke="#6b7c3c" stroke-width="1.2"/></g><g transform="translate(1261.6 87.5) rotate(40) scale(0.77)"><rect x="-40" y="-6" width="80" height="12" rx="6" fill="#7a3f1f"/><rect x="-40" y="-2" width="80" height="4" fill="#5c2c14"/></g><circle cx="50.9" cy="73.4" r="2.5" fill="#1e1611"/><circle cx="67.6" cy="62.1" r="2.5" fill="#1e1611"/><circle cx="74.7" cy="81.5" r="2.5" fill="#1e1611"/><circle cx="63.6" cy="72.9" r="2.5" fill="#1e1611"/><circle cx="71.9" cy="74.6" r="2.5" fill="#1e1611"/><circle cx="52.6" cy="81.7" r="2.5" fill="#1e1611"/><circle cx="52" cy="73.7" r="2.5" fill="#1e1611"/><g transform="translate(291.9 487.1) rotate(266) scale(0.76)"><path d="M0 0 C4 -6 6 -18 0 -24 C-6 -18 -4 -6 0 0Z" fill="#5a2f1a" transform="rotate(0)"/><path d="M0 0 C4 -6 6 -18 0 -24 C-6 -18 -4 -6 0 0Z" fill="#5a2f1a" transform="rotate(45)"/><path d="M0 0 C4 -6 6 -18 0 -24 C-6 -18 -4 -6 0 0Z" fill="#5a2f1a" transform="rotate(90)"/><path d="M0 0 C4 -6 6 -18 0 -24 C-6 -18 -4 -6 0 0Z" fill="#5a2f1a" transform="rotate(135)"/><path d="M0 0 C4 -6 6 -18 0 -24 C-6 -18 -4 -6 0 0Z" fill="#5a2f1a" transform="rotate(180)"/><path d="M0 0 C4 -6 6 -18 0 -24 C-6 -18 -4 -6 0 0Z" fill="#5a2f1a" transform="rotate(225)"/><path d="M0 0 C4 -6 6 -18 0 -24 C-6 -18 -4 -6 0 0Z" fill="#5a2f1a" transform="rotate(270)"/><path d="M0 0 C4 -6 6 -18 0 -24 C-6 -18 -4 -6 0 0Z" fill="#5a2f1a" transform="rotate(315)"/><circle cx="0" cy="-12" r="2.2" fill="#c08a4a" transform="rotate(0)"/><circle cx="0" cy="-12" r="2.2" fill="#c08a4a" transform="rotate(45)"/><circle cx="0" cy="-12" r="2.2" fill="#c08a4a" transform="rotate(90)"/><circle cx="0" cy="-12" r="2.2" fill="#c08a4a" transform="rotate(135)"/><circle cx="0" cy="-12" r="2.2" fill="#c08a4a" transform="rotate(180)"/><circle cx="0" cy="-12" r="2.2" fill="#c08a4a" transform="rotate(225)"/><circle cx="0" cy="-12" r="2.2" fill="#c08a4a" transform="rotate(270)"/><circle cx="0" cy="-12" r="2.2" fill="#c08a4a" transform="rotate(315)"/></g><circle cx="267.2" cy="227.3" r="2.5" fill="#1e1611"/><circle cx="283.1" cy="230.3" r="2.5" fill="#1e1611"/><circle cx="266.7" cy="231.7" r="2.5" fill="#1e1611"/><circle cx="269.2" cy="232.5" r="2.5" fill="#1e1611"/><circle cx="295.4" cy="226.3" r="2.5" fill="#1e1611"/><circle cx="279" cy="228.7" r="2.5" fill="#1e1611"/><circle cx="269.3" cy="228.7" r="2.5" fill="#1e1611"/><g transform="translate(1189.7 654.2) rotate(276) scale(0.90)"><path d="M0 0 C10 -14 32 -14 44 0 C32 14 10 14 0 0Z" fill="#5f9442"/><path d="M2 0 L40 0" stroke="#3e6a2a" stroke-width="1.6"/></g><g transform="translate(1388.2 44.4) rotate(154) scale(1.09)"><ellipse rx="11" ry="6" fill="#8fa05a"/><path d="M-9 0 L9 0" stroke="#6b7c3c" stroke-width="1.2"/></g><g transform="translate(1117.4 131.7) rotate(270) scale(0.71)"><path d="M0 0 C10 -14 32 -14 44 0 C32 14 10 14 0 0Z" fill="#5f9442"/><path d="M2 0 L40 0" stroke="#3e6a2a" stroke-width="1.6"/></g><g transform="translate(151.3 484.2) rotate(250) scale(0.83)"><rect x="-40" y="-6" width="80" height="12" rx="6" fill="#7a3f1f"/><rect x="-40" y="-2" width="80" height="4" fill="#5c2c14"/></g><g transform="translate(1166.2 76.7) rotate(29) scale(0.64)"><path d="M0 0 C18 -8 52 -6 70 6 C52 4 20 8 0 6Z" fill="#b8321f"/><path d="M0 3 C-6 1 -10 -4 -14 -6" stroke="#4c6a2f" stroke-width="3" fill="none" stroke-linecap="round"/></g></g><ellipse cx="578.1" cy="538.4" rx="121.9" ry="33.2" fill="#000" opacity="0.55" filter="url(#soft)"/><path d="M467.2 139.4 L489.4 538.4 Q578.1 555 666.8 538.4 L688.9 139.4 Z" fill="url(#glass)"/><path d="M476.1 205.9 L489.4 532.9 Q578.1 547.3 666.8 532.9 L680.1 205.9 Z" fill="url(#buttermilk)"/><ellipse cx="578.1" cy="205.9" rx="102" ry="20" fill="#f4f0e2"/><ellipse cx="578.1" cy="139.4" rx="110.8" ry="22.2" fill="none" stroke="#f5ebd6" stroke-opacity="0.4" stroke-width="3.3"/><g transform="translate(544.8 203.7) rotate(10) scale(0.90)"><path d="M0 0 C10 -14 32 -14 44 0 C32 14 10 14 0 0Z" fill="#3f6b2a"/><path d="M2 0 L40 0" stroke="#3e6a2a" stroke-width="1.6"/></g><g transform="translate(589.2 208.1) rotate(-30) scale(0.80)"><path d="M0 0 C10 -14 32 -14 44 0 C32 14 10 14 0 0Z" fill="#3f6b2a"/><path d="M2 0 L40 0" stroke="#3e6a2a" stroke-width="1.6"/></g><path d="M511.6 261.3 L522.7 494.1" stroke="#fff" stroke-opacity="0.25" stroke-width="11.1" stroke-linecap="round"/><ellipse cx="877.3" cy="471.9" rx="166.2" ry="149.6" fill="#000" opacity="0.5" filter="url(#soft)"/><circle cx="877.3" cy="449.8" r="166.2" fill="url(#steel)"/><circle cx="877.3" cy="449.8" r="136.3" fill="url(#syrup)"/><circle cx="827.5" cy="427.6" r="57.6" fill="url(#jamun)"/><ellipse cx="809.7" cy="405.4" rx="15.5" ry="8.9" fill="#fff" opacity="0.3"/><circle cx="927.2" cy="466.4" r="57.6" fill="url(#jamun)"/><ellipse cx="909.5" cy="444.2" rx="15.5" ry="8.9" fill="#fff" opacity="0.3"/></svg>